<?xml version="1.0" encoding="UTF-8"?>
<svg xmlns="http://www.w3.org/2000/svg" xmlns:xlink="http://www.w3.org/1999/xlink" width="300" height="300" viewBox="0 0 300 300">
  <defs>
    <linearGradient id="suit-gradient" x1="0%" y1="0%" x2="100%" y2="100%">
      <stop offset="0%" style="stop-color:#2C3E50;stop-opacity:1" />
      <stop offset="100%" style="stop-color:#34495E;stop-opacity:1" />
    </linearGradient>
    <linearGradient id="skin-gradient" x1="0%" y1="0%" x2="100%" y2="100%">
      <stop offset="0%" style="stop-color:#e6c9a8;stop-opacity:1" />
      <stop offset="100%" style="stop-color:#d4a575;stop-opacity:1" />
    </linearGradient>
    <linearGradient id="hair-gradient" x1="0%" y1="0%" x2="100%" y2="100%">
      <stop offset="0%" style="stop-color:#3a3a3a;stop-opacity:1" />
      <stop offset="100%" style="stop-color:#1a1a1a;stop-opacity:1" />
    </linearGradient>
    <linearGradient id="tie-gradient" x1="0%" y1="0%" x2="100%" y2="100%">
      <stop offset="0%" style="stop-color:#2C3E50;stop-opacity:1" />
      <stop offset="100%" style="stop-color:#34495E;stop-opacity:1" />
    </linearGradient>
  </defs>
  
  <!-- Background -->
  <rect x="0" y="0" width="300" height="300" fill="#f8f8f8" rx="10" ry="10" />
  
  <!-- Suit/Jacket -->
  <path d="M80,180 L60,300 L240,300 L220,180 Q170,200 150,200 Q130,200 80,180 Z" fill="url(#suit-gradient)" />
  <path d="M120,190 L130,300 L170,300 L180,190 Q155,200 150,200 Q145,200 120,190 Z" fill="#fff" />
  
  <!-- Shirt Collar -->
  <path d="M120,190 L150,220 L180,190 Q155,210 150,210 Q145,210 120,190 Z" fill="#fff" />
  
  <!-- Tie -->
  <path d="M150,200 L140,230 L150,300 L160,230 L150,200 Z" fill="url(#tie-gradient)" />
  
  <!-- Neck -->
  <path d="M130,160 Q150,170 170,160 L170,190 Q150,200 130,190 Z" fill="url(#skin-gradient)" />
  
  <!-- Head -->
  <ellipse cx="150" cy="120" rx="60" ry="70" fill="url(#skin-gradient)" />
  
  <!-- Hair -->
  <path d="M90,100 Q90,60 150,50 Q210,60 210,100 L210,110 Q210,60 180,70 L180,65 Q140,40 120,65 L120,70 Q90,60 90,110 Z" fill="url(#hair-gradient)" />
  
  <!-- Eyebrows -->
  <path d="M120,100 Q135,90 150,100" fill="none" stroke="#3a3a3a" stroke-width="3" />
  <path d="M180,100 Q165,90 150,100" fill="none" stroke="#3a3a3a" stroke-width="3" />
  
  <!-- Eyes -->
  <ellipse cx="130" cy="110" rx="8" ry="5" fill="#fff" />
  <ellipse cx="170" cy="110" rx="8" ry="5" fill="#fff" />
  <circle cx="130" cy="110" r="3" fill="#2C3E50" />
  <circle cx="170" cy="110" r="3" fill="#2C3E50" />
  
  <!-- Nose -->
  <path d="M150,110 L155,130 L150,135 L145,130 Z" fill="url(#skin-gradient)" stroke="#d4a575" stroke-width="0.5" />
  
  <!-- Mouth -->
  <path d="M135,150 Q150,160 165,150" fill="none" stroke="#a56939" stroke-width="2" />
  
  <!-- Ears -->
  <path d="M90,110 Q85,120 90,130 L95,125 L95,115 Z" fill="url(#skin-gradient)" />
  <path d="M210,110 Q215,120 210,130 L205,125 L205,115 Z" fill="url(#skin-gradient)" />
  
  <!-- Glasses -->
  <path d="M110,110 L95,108 M190,110 L205,108" fill="none" stroke="#333" stroke-width="2" />
  <rect x="115" y="105" width="30" height="15" rx="5" ry="5" fill="none" stroke="#333" stroke-width="2" />
  <rect x="155" y="105" width="30" height="15" rx="5" ry="5" fill="none" stroke="#333" stroke-width="2" />
  <path d="M145,110 L155,110" fill="none" stroke="#333" stroke-width="2" />
</svg>