<?xml version="1.0" encoding="UTF-8"?>
<svg width="400" height="400" viewBox="0 0 400 400" xmlns="http://www.w3.org/2000/svg">
  <!-- Professional lawyer illustration -->
  <defs>
    <linearGradient id="skinTone" x1="0%" y1="0%" x2="100%" y2="0%">
      <stop offset="0%" stop-color="#e8c39e" />
      <stop offset="100%" stop-color="#d4a985" />
    </linearGradient>
    <linearGradient id="suitColor" x1="0%" y1="0%" x2="100%" y2="0%">
      <stop offset="0%" stop-color="#2C3E50" />
      <stop offset="100%" stop-color="#34495E" />
    </linearGradient>
  </defs>

  <!-- Background oval -->
  <ellipse cx="200" cy="200" rx="180" ry="180" fill="#f5f5f5" />
  
  <!-- Suit/Body -->
  <path d="M140 180 L120 400 L280 400 L260 180 Q220 200 200 200 Q180 200 140 180 Z" fill="url(#suitColor)" />
  
  <!-- Shirt collar -->
  <path d="M160 200 L180 280 L200 260 L220 280 L240 200 Q220 210 200 210 Q180 210 160 200 Z" fill="#ffffff" />
  
  <!-- Tie -->
  <path d="M190 210 L200 250 L210 210 L205 320 L195 320 Z" fill="#C8A05F" />
  
  <!-- Head -->
  <circle cx="200" cy="140" r="60" fill="url(#skinTone)" />
  
  <!-- Hair -->
  <path d="M140 130 Q150 80 200 80 Q250 80 260 130 Q230 110 200 110 Q170 110 140 130 Z" fill="#4a3520" />
  <path d="M140 130 Q150 100 170 120 Q160 140 160 150 Z" fill="#4a3520" />
  <path d="M260 130 Q250 100 230 120 Q240 140 240 150 Z" fill="#4a3520" />
  
  <!-- Face features -->
  <!-- Eyes -->
  <ellipse cx="180" cy="130" rx="8" ry="5" fill="#3e2723" />
  <ellipse cx="220" cy="130" rx="8" ry="5" fill="#3e2723" />
  
  <!-- Eyebrows -->
  <path d="M170 120 Q180 115 190 120" stroke="#4a3520" stroke-width="2" fill="none" />
  <path d="M210 120 Q220 115 230 120" stroke="#4a3520" stroke-width="2" fill="none" />
  
  <!-- Nose -->
  <path d="M200 135 Q205 150 200 155" stroke="#d4a985" stroke-width="2" fill="none" />
  
  <!-- Mouth -->
  <path d="M185 165 Q200 175 215 165" stroke="#b76e79" stroke-width="2" fill="none" />
  
  <!-- Glasses -->
  <rect x="165" y="125" width="30" height="15" rx="5" ry="5" fill="none" stroke="#505050" stroke-width="2" />
  <rect x="205" y="125" width="30" height="15" rx="5" ry="5" fill="none" stroke="#505050" stroke-width="2" />
  <line x1="195" y1="132" x2="205" y2="132" stroke="#505050" stroke-width="2" />
  <line x1="150" y1="132" x2="165" y2="132" stroke="#505050" stroke-width="2" />
  <line x1="235" y1="132" x2="250" y2="132" stroke="#505050" stroke-width="2" />
</svg>